<mxfile host="app.diagrams.net" modified="2021-05-24T12:16:27.219Z" agent="5.0 (Macintosh)" etag="IdfbYXPzQc8H5KenAQ-_" version="14.7.0" type="github">
  <diagram id="zJ7THGuJf5rQ3_z10oc8" name="State management">
    <mxGraphModel dx="1870" dy="669" grid="1" gridSize="10" guides="1" tooltips="1" connect="1" arrows="1" fold="1" page="1" pageScale="1" pageWidth="850" pageHeight="1100" math="0" shadow="0">
      <root>
        <mxCell id="0" />
        <mxCell id="1" parent="0" />
        <mxCell id="A87M4cQH8A1oSUvU0gTG-2" value="feedSources" style="shape=cylinder3;whiteSpace=wrap;html=1;boundedLbl=1;backgroundOutline=1;size=15;fillColor=#dae8fc;strokeColor=#6c8ebf;" vertex="1" parent="1">
          <mxGeometry x="170" y="50" width="120" height="80" as="geometry" />
        </mxCell>
        <mxCell id="A87M4cQH8A1oSUvU0gTG-3" value="&lt;div&gt;feedData&lt;/div&gt;" style="shape=cylinder3;whiteSpace=wrap;html=1;boundedLbl=1;backgroundOutline=1;size=15;fillColor=#d5e8d4;strokeColor=#82b366;" vertex="1" parent="1">
          <mxGeometry x="350" y="50" width="120" height="80" as="geometry" />
        </mxCell>
        <mxCell id="A87M4cQH8A1oSUvU0gTG-4" value="" style="rounded=0;whiteSpace=wrap;html=1;" vertex="1" parent="1">
          <mxGeometry x="120" y="230" width="670" height="450" as="geometry" />
        </mxCell>
        <mxCell id="A87M4cQH8A1oSUvU0gTG-5" value="&lt;div align=&quot;left&quot;&gt;List of feeds&lt;br&gt;&lt;/div&gt;" style="rounded=0;whiteSpace=wrap;html=1;" vertex="1" parent="1">
          <mxGeometry x="170" y="260" width="90" height="110" as="geometry" />
        </mxCell>
        <mxCell id="A87M4cQH8A1oSUvU0gTG-6" value="-" style="rounded=0;whiteSpace=wrap;html=1;" vertex="1" parent="1">
          <mxGeometry x="330" y="260" width="260" height="420" as="geometry" />
        </mxCell>
        <mxCell id="A87M4cQH8A1oSUvU0gTG-7" value="Post A" style="rounded=0;whiteSpace=wrap;html=1;" vertex="1" parent="1">
          <mxGeometry x="340" y="290" width="240" height="120" as="geometry" />
        </mxCell>
        <mxCell id="A87M4cQH8A1oSUvU0gTG-8" value="Post B" style="rounded=0;whiteSpace=wrap;html=1;" vertex="1" parent="1">
          <mxGeometry x="340" y="430" width="240" height="120" as="geometry" />
        </mxCell>
        <mxCell id="A87M4cQH8A1oSUvU0gTG-9" value="Post C" style="rounded=0;whiteSpace=wrap;html=1;" vertex="1" parent="1">
          <mxGeometry x="340" y="560" width="240" height="120" as="geometry" />
        </mxCell>
        <mxCell id="A87M4cQH8A1oSUvU0gTG-10" value="" style="ellipse;whiteSpace=wrap;html=1;aspect=fixed;fillColor=#dae8fc;strokeColor=#6c8ebf;" vertex="1" parent="1">
          <mxGeometry x="160" y="240" width="40" height="40" as="geometry" />
        </mxCell>
        <mxCell id="A87M4cQH8A1oSUvU0gTG-11" value="" style="ellipse;whiteSpace=wrap;html=1;aspect=fixed;fillColor=#d5e8d4;strokeColor=#82b366;" vertex="1" parent="1">
          <mxGeometry x="310" y="240" width="40" height="40" as="geometry" />
        </mxCell>
        <mxCell id="A87M4cQH8A1oSUvU0gTG-12" value="&lt;h1&gt;State Actions&lt;br&gt;&lt;/h1&gt;&lt;p&gt;&lt;font size=&quot;1&quot;&gt;&lt;span style=&quot;background-color: rgb(212 , 225 , 245)&quot;&gt;&lt;font style=&quot;font-size: 20px&quot; color=&quot;#7EA6E0&quot;&gt;feedSources&lt;/font&gt;&lt;/span&gt;&lt;/font&gt;&lt;/p&gt;&lt;p&gt;&lt;span style=&quot;background-color: rgb(255 , 255 , 255)&quot;&gt;- Add new source -&amp;gt; refresh feed&lt;br&gt;&lt;/span&gt;&lt;/p&gt;&lt;p&gt;&lt;span style=&quot;background-color: rgb(255 , 255 , 255)&quot;&gt;- Delete a source&lt;/span&gt;&lt;/p&gt;&lt;p&gt;&lt;span style=&quot;background-color: rgb(255 , 255 , 255)&quot;&gt;&lt;br&gt;&lt;/span&gt;&lt;/p&gt;&lt;p&gt;&lt;br&gt;&lt;span style=&quot;background-color: rgb(213 , 232 , 212)&quot;&gt;&lt;font color=&quot;#67AB9F&quot;&gt;&lt;font size=&quot;1&quot;&gt;&lt;font style=&quot;font-size: 20px&quot;&gt;feedData&lt;/font&gt;&lt;/font&gt;&lt;/font&gt;&lt;/span&gt;&lt;/p&gt;&lt;p&gt;&lt;span style=&quot;background-color: rgb(213 , 232 , 212)&quot;&gt;&lt;font color=&quot;#67AB9F&quot;&gt;&lt;font style=&quot;font-size: 12px&quot;&gt;&lt;font style=&quot;font-size: 12px&quot;&gt;&lt;font color=&quot;#000000&quot;&gt;&lt;span style=&quot;background-color: rgb(255 , 255 , 255)&quot;&gt;-&lt;font color=&quot;#67AB9F&quot;&gt; &lt;font color=&quot;#000000&quot;&gt;Refresh feed&lt;/font&gt;&lt;/font&gt;&lt;/span&gt;&lt;/font&gt;&lt;/font&gt;&lt;/font&gt;&lt;/font&gt;&lt;/span&gt;&lt;/p&gt;&lt;p&gt;&lt;span style=&quot;background-color: rgb(213 , 232 , 212)&quot;&gt;&lt;font color=&quot;#67AB9F&quot;&gt;&lt;font style=&quot;font-size: 12px&quot;&gt;&lt;font style=&quot;font-size: 12px&quot;&gt;&lt;span style=&quot;background-color: rgb(255 , 255 , 255)&quot;&gt;&lt;font color=&quot;#000000&quot;&gt;- On add new source&lt;/font&gt;&lt;/span&gt;&lt;br&gt;&lt;/font&gt;&lt;/font&gt;&lt;/font&gt;&lt;/span&gt;&lt;/p&gt;&lt;p&gt;&lt;span style=&quot;background-color: rgb(255 , 255 , 255)&quot;&gt;&lt;/span&gt;&lt;br&gt;&lt;/p&gt;" style="text;html=1;strokeColor=none;fillColor=none;spacing=5;spacingTop=-20;whiteSpace=wrap;overflow=hidden;rounded=0;" vertex="1" parent="1">
          <mxGeometry x="-140" y="230" width="190" height="450" as="geometry" />
        </mxCell>
        <mxCell id="A87M4cQH8A1oSUvU0gTG-13" value="Refresh feed" style="rounded=1;whiteSpace=wrap;html=1;" vertex="1" parent="1">
          <mxGeometry x="170" y="420" width="120" height="30" as="geometry" />
        </mxCell>
        <mxCell id="A87M4cQH8A1oSUvU0gTG-14" value="Add new source" style="rounded=1;whiteSpace=wrap;html=1;" vertex="1" parent="1">
          <mxGeometry x="170" y="380" width="120" height="30" as="geometry" />
        </mxCell>
      </root>
    </mxGraphModel>
  </diagram>
</mxfile>
